<svg xmlns="http://www.w3.org/2000/svg" viewBox="0 0 900 100">
<style>text{font-family:Arial;font-size:11px;fill:#fff;text-anchor:middle;dominant-baseline:middle}.box{rx:8;ry:8}.arr{fill:#666;font-size:16px;fill:#888}</style>
<rect class="box" x="5" y="20" width="80" height="40" fill="#2E7D32"/><text x="45" y="40">DD</text>
<text class="arr" x="100" y="40">→</text>
<rect class="box" x="115" y="20" width="80" height="40" fill="#2E7D32"/><text x="155" y="40">Matrice DF</text>
<text class="arr" x="210" y="40">→</text>
<rect class="box" x="225" y="20" width="80" height="40" fill="#2E7D32"/><text x="265" y="40">Graphe</text>
<text class="arr" x="320" y="40">→</text>
<rect class="box" x="335" y="20" width="80" height="40" fill="#1B5E20"/><text x="375" y="40">MCD+CIF</text>
<text class="arr" x="430" y="40">→</text>
<rect class="box" x="445" y="20" width="60" height="40" fill="#1B5E20"/><text x="475" y="40">MLD</text>
<text class="arr" x="520" y="40">→</text>
<rect class="box" x="535" y="20" width="60" height="40" fill="#1B5E20"/><text x="565" y="40">3NF</text>
<text class="arr" x="610" y="40">→</text>
<rect class="box" x="625" y="20" width="60" height="40" fill="#1B5E20"/><text x="655" y="40">MPD</text>
<text class="arr" x="700" y="40">→</text>
<rect class="box" x="715" y="20" width="60" height="40" fill="#1565C0"/><text x="745" y="40">SQL</text>
<text class="arr" x="790" y="40">→</text>
<rect class="box" x="805" y="20" width="60" height="40" fill="#E65100"/><text x="835" y="40">Tests</text>
<text x="450" y="80" style="fill:#888;font-size:10px">Pipeline méthodologique SwissSound — LO1 → LO2 → LO3 → LO4</text>
</svg>